<?xml version="1.0" encoding="UTF-8"?><svg id="OBJECTS" xmlns="http://www.w3.org/2000/svg" viewBox="0 0 1066 1033.55"><defs><style>.cls-1{fill:#fff;}</style></defs><path class="cls-1" d="M82.79,538.14v-.63c0-62.34,46.68-113.41,113.09-113.41,40.41,0,64.85,14.1,85.84,34.15l-24.75,28.51c-17.54-16.29-36.34-27.26-61.4-27.26-41.67,0-72.37,34.46-72.37,77.38v.63c0,42.92,30.39,77.69,72.37,77.69,26.94,0,44.17-10.65,62.97-28.2l24.75,25.06c-22.87,23.81-47.93,38.85-88.97,38.85-63.91,0-111.53-49.81-111.53-112.78Z"/><path class="cls-1" d="M311.47,481.75h37.91v37.28c10.34-24.75,29.45-41.67,58.58-40.41v40.1h-2.19c-33.21,0-56.39,21.62-56.39,65.48v62.97h-37.91v-165.41Z"/><path class="cls-1" d="M414.22,599.54v-.63c0-35.71,27.88-53.26,68.29-53.26,18.48,0,31.64,2.82,44.48,6.89v-4.07c0-23.5-14.41-36.03-41.04-36.03-18.48,0-32.27,4.07-47.3,10.34l-10.02-29.76c18.17-8.14,36.03-13.47,62.34-13.47,24.75,0,43.23,6.58,54.82,18.48,12.22,11.91,17.86,29.45,17.86,51.06v98.05h-36.97v-20.68c-11.28,13.47-28.51,24.12-53.88,24.12-31.01,0-58.58-17.86-58.58-51.06ZM527.63,587.64v-11.28c-9.71-3.76-22.56-6.58-37.59-6.58-24.44,0-38.85,10.34-38.85,27.57v.63c0,15.98,14.1,25.06,32.27,25.06,25.06,0,44.17-14.41,44.17-35.4ZM511.03,409.38l34.46,15.35-38.53,36.03h-28.51l32.58-51.38Z"/><path class="cls-1" d="M607.51,601.42v-87.09h-20.99v-32.58h20.99v-45.42h37.91v45.42h44.48v32.58h-44.48v81.14c0,14.72,7.52,20.68,20.36,20.68,8.46,0,15.98-1.88,23.5-5.64v31.01c-9.4,5.33-19.74,8.46-34.15,8.46-27.88,0-47.62-12.22-47.62-48.56Z"/><path class="cls-1" d="M706.81,565.08v-.63c0-47.3,33.52-86.15,80.82-86.15,52.63,0,79.26,41.35,79.26,88.97,0,3.45-.31,6.89-.63,10.65h-121.55c4.07,26.94,23.18,41.98,47.62,41.98,18.48,0,31.64-6.89,44.8-19.74l22.24,19.74c-15.66,18.8-37.28,31.02-67.67,31.02-47.93,0-84.9-34.77-84.9-85.84ZM829.3,552.87c-2.51-24.44-16.92-43.55-41.98-43.55-23.18,0-39.47,17.86-42.92,43.55h84.9Z"/><path class="cls-1" d="M897.28,481.75h37.91v37.28c10.34-24.75,29.45-41.67,58.58-40.41v40.1h-2.19c-33.21,0-56.39,21.62-56.39,65.48v62.97h-37.91v-165.41Z"/></svg>