<?xml version="1.0" encoding="UTF-8"?><svg id="OBJECTS" xmlns="http://www.w3.org/2000/svg" viewBox="0 0 1066 1033.55"><defs><style>.cls-1{fill:#fff;}</style></defs><path class="cls-1" d="M264.57,416.56c-47.2-35.68-110.45-28.95-146.56-6.5-19.63,12.2-33.68,30.53-34.55,31.67-1.57,2.08-17.63,23.74-23.42,51.37-8.73,41.62,5.6,97.79,48.59,129.74,52.15,38.75,136.21,34.23,181.11-25.17,43.06-56.96,31.8-138.05-25.17-181.11ZM206.08,643.04c-68.12,10.76-132.07-35.74-142.83-103.87-8.23-52.09,48.96-43.27,65.59-71.65,17.47-29.81-7.34-63.96,38.27-71.18,61.69-9.77,131.18,30.09,142.83,103.87,10.76,68.12-35.74,132.07-103.87,142.83Z"/><circle class="cls-1" cx="186.97" cy="519.7" r="36.88"/><path class="cls-1" d="M371.25,525.29v-.44c0-43.6,32.65-79.32,79.1-79.32,28.27,0,45.36,9.86,60.04,23.88l-17.31,19.94c-12.27-11.39-25.42-19.06-42.95-19.06-29.14,0-50.61,24.1-50.61,54.12v.44c0,30.02,21.25,54.34,50.61,54.34,18.84,0,30.89-7.45,44.04-19.72l17.31,17.53c-15.99,16.65-33.52,27.17-62.23,27.17-44.7,0-78-34.84-78-78.88Z"/><path class="cls-1" d="M531.19,485.85h26.51v26.07c7.23-17.31,20.6-29.14,40.97-28.27v28.05h-1.53c-23.23,0-39.44,15.12-39.44,45.79v44.04h-26.51v-115.69Z"/><path class="cls-1" d="M603.06,568.24v-.44c0-24.98,19.5-37.25,47.77-37.25,12.93,0,22.13,1.97,31.11,4.82v-2.85c0-16.43-10.08-25.2-28.7-25.2-12.93,0-22.57,2.85-33.09,7.23l-7.01-20.82c12.71-5.7,25.2-9.42,43.6-9.42,17.31,0,30.24,4.6,38.34,12.93,8.54,8.33,12.49,20.6,12.49,35.72v68.58h-25.85v-14.46c-7.89,9.42-19.94,16.87-37.69,16.87-21.69,0-40.97-12.49-40.97-35.71ZM682.38,559.91v-7.89c-6.79-2.63-15.78-4.6-26.29-4.6-17.09,0-27.17,7.23-27.17,19.28v.44c0,11.17,9.86,17.53,22.57,17.53,17.53,0,30.89-10.08,30.89-24.76ZM670.77,435.24l24.1,10.74-26.95,25.2h-19.94l22.79-35.93Z"/><path class="cls-1" d="M738.25,569.55v-60.91h-14.68v-22.79h14.68v-31.77h26.51v31.77h31.11v22.79h-31.11v56.75c0,10.3,5.26,14.46,14.24,14.46,5.92,0,11.17-1.31,16.43-3.94v21.69c-6.57,3.73-13.8,5.92-23.88,5.92-19.5,0-33.3-8.54-33.3-33.96Z"/><path class="cls-1" d="M807.7,544.13v-.44c0-33.09,23.44-60.26,56.53-60.26,36.81,0,55.44,28.92,55.44,62.23,0,2.41-.22,4.82-.44,7.45h-85.01c2.85,18.84,16.21,29.36,33.3,29.36,12.93,0,22.13-4.82,31.33-13.8l15.56,13.8c-10.95,13.15-26.07,21.69-47.33,21.69-33.52,0-59.38-24.32-59.38-60.04ZM893.38,535.59c-1.75-17.09-11.83-30.46-29.36-30.46-16.21,0-27.61,12.49-30.02,30.46h59.38Z"/><path class="cls-1" d="M940.92,485.85h26.51v26.07c7.23-17.31,20.6-29.14,40.97-28.27v28.05h-1.53c-23.23,0-39.44,15.12-39.44,45.79v44.04h-26.51v-115.69Z"/></svg>