<?xml version="1.0" encoding="UTF-8"?><svg id="OBJECTS" xmlns="http://www.w3.org/2000/svg" viewBox="0 0 1066 1033.55"><path d="M201.42,469.78c-33.8-25.55-79.09-20.73-104.95-4.66-14.05,8.74-24.12,21.86-24.74,22.68-1.12,1.49-12.62,17-16.77,36.79-6.25,29.8,4.01,70.03,34.79,92.9,37.34,27.75,97.54,24.51,129.69-18.02,30.84-40.79,22.77-98.86-18.02-129.69ZM159.54,631.97c-48.78,7.71-94.58-25.6-102.28-74.38-5.89-37.3,35.06-30.98,46.97-51.31,12.51-21.35-5.25-45.8,27.41-50.98,44.17-7,93.94,21.55,102.28,74.38,7.71,48.78-25.6,94.58-74.38,102.28Z"/><circle cx="145.85" cy="543.65" r="26.41"/><path d="M277.82,502.22v-.31c0-31.22,23.38-56.8,56.64-56.8,20.24,0,32.48,7.06,42.99,17.1l-12.4,14.28c-8.79-8.16-18.2-13.65-30.75-13.65-20.87,0-36.25,17.26-36.25,38.76v.31c0,21.5,15.22,38.91,36.25,38.91,13.49,0,22.12-5.33,31.54-14.12l12.4,12.55c-11.45,11.93-24.01,19.46-44.56,19.46-32.01,0-55.86-24.95-55.86-56.49Z"/><path d="M392.35,473.98h18.99v18.67c5.18-12.4,14.75-20.87,29.34-20.24v20.08h-1.1c-16.63,0-28.24,10.83-28.24,32.79v31.54h-18.99v-82.85Z"/><path d="M443.82,532.98v-.31c0-17.89,13.96-26.67,34.21-26.67,9.26,0,15.85,1.41,22.28,3.45v-2.04c0-11.77-7.22-18.04-20.55-18.04-9.26,0-16.16,2.04-23.69,5.18l-5.02-14.91c9.1-4.08,18.04-6.75,31.22-6.75,12.4,0,21.65,3.3,27.46,9.26,6.12,5.96,8.94,14.75,8.94,25.58v49.11h-18.51v-10.36c-5.65,6.75-14.28,12.08-26.99,12.08-15.53,0-29.34-8.94-29.34-25.58ZM500.62,527.01v-5.65c-4.86-1.88-11.3-3.3-18.83-3.3-12.24,0-19.46,5.18-19.46,13.81v.31c0,8,7.06,12.55,16.16,12.55,12.55,0,22.12-7.22,22.12-17.73ZM492.3,437.73l17.26,7.69-19.3,18.04h-14.28l16.32-25.73Z"/><path d="M540.62,533.92v-43.62h-10.51v-16.32h10.51v-22.75h18.99v22.75h22.28v16.32h-22.28v40.64c0,7.37,3.77,10.36,10.2,10.36,4.24,0,8-.94,11.77-2.82v15.53c-4.71,2.67-9.89,4.24-17.1,4.24-13.96,0-23.85-6.12-23.85-24.32Z"/><path d="M590.36,515.72v-.31c0-23.69,16.79-43.15,40.48-43.15,26.36,0,39.7,20.71,39.7,44.56,0,1.73-.16,3.45-.31,5.33h-60.88c2.04,13.49,11.61,21.03,23.85,21.03,9.26,0,15.85-3.45,22.44-9.88l11.14,9.88c-7.84,9.41-18.67,15.53-33.89,15.53-24.01,0-42.52-17.42-42.52-42.99ZM651.71,509.6c-1.26-12.24-8.47-21.81-21.03-21.81-11.61,0-19.77,8.94-21.5,21.81h42.52Z"/><path d="M685.76,473.98h18.99v18.67c5.18-12.4,14.75-20.87,29.34-20.24v20.08h-1.1c-16.63,0-28.24,10.83-28.24,32.79v31.54h-18.99v-82.85Z"/><path d="M290.55,611.4v-26.07h8.25c1.79,0,3.5.27,5.14.81,1.63.54,3.11,1.33,4.44,2.37,1.33,1.04,2.38,2.42,3.17,4.13.79,1.71,1.18,3.62,1.18,5.73s-.39,4.02-1.18,5.73c-.79,1.71-1.84,3.08-3.17,4.12-1.33,1.04-2.81,1.84-4.44,2.38-1.63.54-3.35.81-5.14.81h-8.25ZM292.65,587.21v22.32h5.6c3.8,0,6.8-1.04,8.99-3.13,2.18-2.09,3.28-4.76,3.28-8.03s-1.09-5.94-3.28-8.03c-2.19-2.09-5.18-3.13-8.99-3.13h-5.6Z"/><path d="M325.79,611.88c-2.5,0-4.58-.86-6.22-2.58-1.65-1.72-2.47-3.89-2.47-6.52s.82-4.72,2.45-6.43c1.63-1.71,3.65-2.56,6.06-2.56,2.58,0,4.57.8,5.98,2.41,1.41,1.61,2.12,3.6,2.12,5.98v1.03h-14.55c.05,1.89.69,3.52,1.92,4.88,1.23,1.36,2.82,2.04,4.79,2.04,2.28,0,4.25-.97,5.89-2.91l1.33,1.07c-1.84,2.38-4.27,3.57-7.29,3.57ZM319.2,601.64h12.52c-.07-1.84-.66-3.33-1.75-4.47-1.09-1.14-2.56-1.71-4.4-1.71s-3.31.64-4.49,1.93-1.8,2.71-1.88,4.25Z"/><path d="M349.8,596.71l-1.55,1.1c-.93-1.57-2.37-2.36-4.31-2.36-1.03,0-1.93.25-2.71.75-.77.5-1.16,1.25-1.16,2.23s.33,1.63.99,2.08c.66.45,1.77.85,3.31,1.2,1.91.42,3.35,1.01,4.31,1.77.96.76,1.44,1.82,1.44,3.17,0,1.72-.61,3.01-1.82,3.89s-2.68,1.31-4.4,1.31c-2.9,0-5.07-1.07-6.52-3.2l1.58-1.14c.52.79,1.21,1.42,2.08,1.91.87.49,1.82.74,2.85.74,1.18,0,2.18-.28,3-.83.82-.55,1.23-1.39,1.23-2.52,0-.86-.34-1.53-1.03-2.03-.69-.49-1.52-.85-2.49-1.09-.97-.23-1.95-.49-2.93-.77s-1.82-.78-2.5-1.49c-.69-.71-1.03-1.66-1.03-2.84,0-1.57.57-2.76,1.71-3.57,1.14-.81,2.52-1.21,4.14-1.21,1.28,0,2.42.25,3.44.75,1.02.5,1.8,1.22,2.34,2.15Z"/><path d="M359.89,611.88c-1.52,0-2.89-.43-4.09-1.29-1.2-.86-1.8-2.14-1.8-3.83,0-1.18.29-2.17.87-2.96.58-.8,1.4-1.39,2.47-1.77,1.07-.38,2.15-.64,3.26-.79s2.38-.22,3.83-.22h1.73v-.77c0-3.19-1.62-4.79-4.86-4.79-2.01,0-3.72.68-5.12,2.03l-1.1-1.33c1.62-1.57,3.76-2.36,6.41-2.36,1.99,0,3.58.53,4.79,1.58,1.2,1.06,1.8,2.6,1.8,4.64v7.51c0,1.55.1,2.84.29,3.87h-1.8c-.2-1.18-.29-2.23-.29-3.17h-.07c-1.35,2.43-3.45,3.65-6.3,3.65ZM360.37,610.22c1.87,0,3.3-.61,4.29-1.82.99-1.21,1.49-2.68,1.49-4.4v-1.4h-1.29c-5.87,0-8.8,1.35-8.8,4.05,0,1.23.42,2.13,1.27,2.71.85.58,1.86.87,3.04.87Z"/><path d="M374.74,598.18c0-1.62-.05-2.93-.15-3.94h1.92c.1,1.28.15,2.42.15,3.43h.07c.47-1.2,1.21-2.15,2.23-2.84,1.02-.69,2.15-1.03,3.41-1.03.61,0,1.07.05,1.36.15l-.22,1.84c-.34-.1-.81-.15-1.4-.15-1.6,0-2.88.63-3.87,1.88s-1.47,2.95-1.47,5.08v8.8h-2.02v-13.22Z"/><path d="M387.51,598.18c0-1.62-.05-2.93-.15-3.94h1.92c.1,1.28.15,2.42.15,3.43h.07c.47-1.2,1.21-2.15,2.23-2.84,1.02-.69,2.15-1.03,3.41-1.03.61,0,1.07.05,1.36.15l-.22,1.84c-.34-.1-.81-.15-1.4-.15-1.6,0-2.88.63-3.87,1.88s-1.47,2.95-1.47,5.08v8.8h-2.02v-13.22Z"/><path d="M416.42,602.82c0,2.6-.85,4.76-2.54,6.48s-3.87,2.58-6.52,2.58-4.79-.86-6.48-2.58-2.54-3.88-2.54-6.48.84-4.79,2.52-6.48c1.68-1.69,3.85-2.54,6.5-2.54s4.82.85,6.52,2.54c1.69,1.69,2.54,3.85,2.54,6.48ZM412.44,608.01c1.28-1.38,1.92-3.11,1.92-5.19s-.64-3.82-1.92-5.21-2.97-2.08-5.08-2.08-3.77.69-5.04,2.08c-1.28,1.39-1.92,3.12-1.92,5.21s.64,3.82,1.92,5.19c1.28,1.38,2.96,2.06,5.04,2.06s3.81-.69,5.08-2.06Z"/><path d="M424.08,583.56v27.84h-1.99v-27.84h1.99Z"/><path d="M433.07,583.56v27.84h-1.99v-27.84h1.99Z"/><path d="M456.82,602.82c0,2.6-.85,4.76-2.54,6.48s-3.87,2.58-6.52,2.58-4.79-.86-6.48-2.58-2.54-3.88-2.54-6.48.84-4.79,2.52-6.48c1.68-1.69,3.85-2.54,6.5-2.54s4.82.85,6.52,2.54c1.69,1.69,2.54,3.85,2.54,6.48ZM452.84,608.01c1.28-1.38,1.92-3.11,1.92-5.19s-.64-3.82-1.92-5.21-2.97-2.08-5.08-2.08-3.77.69-5.04,2.08c-1.28,1.39-1.92,3.12-1.92,5.21s.64,3.82,1.92,5.19c1.28,1.38,2.96,2.06,5.04,2.06s3.81-.69,5.08-2.06Z"/><path d="M485.36,596.49l-1.33,1.22c-.52-.66-1.2-1.19-2.06-1.58-.86-.39-1.76-.59-2.69-.59-2.04,0-3.69.69-4.95,2.08-1.26,1.39-1.9,3.12-1.9,5.21s.63,3.82,1.88,5.19c1.25,1.38,2.88,2.06,4.9,2.06s3.68-.69,5.01-2.06l1.25,1.14c-1.57,1.82-3.66,2.73-6.26,2.73s-4.79-.85-6.41-2.54c-1.62-1.69-2.43-3.87-2.43-6.52s.83-4.79,2.49-6.48c1.66-1.69,3.79-2.54,6.39-2.54s4.69.9,6.11,2.69Z"/><path d="M489.85,598.18c0-1.62-.05-2.93-.15-3.94h1.92c.1,1.28.15,2.42.15,3.43h.07c.47-1.2,1.21-2.15,2.23-2.84,1.02-.69,2.15-1.03,3.41-1.03.61,0,1.07.05,1.36.15l-.22,1.84c-.34-.1-.81-.15-1.4-.15-1.6,0-2.88.63-3.87,1.88s-1.47,2.95-1.47,5.08v8.8h-2.02v-13.22Z"/><path d="M509.33,611.88c-2.5,0-4.58-.86-6.22-2.58-1.65-1.72-2.47-3.89-2.47-6.52s.82-4.72,2.45-6.43c1.63-1.71,3.65-2.56,6.06-2.56,2.58,0,4.57.8,5.98,2.41,1.41,1.61,2.12,3.6,2.12,5.98v1.03h-14.55c.05,1.89.69,3.52,1.92,4.88,1.23,1.36,2.82,2.04,4.79,2.04,2.28,0,4.25-.97,5.89-2.91l1.33,1.07c-1.84,2.38-4.27,3.57-7.29,3.57ZM502.74,601.64h12.52c-.07-1.84-.66-3.33-1.75-4.47-1.09-1.14-2.56-1.71-4.4-1.71s-3.31.64-4.49,1.93-1.8,2.71-1.88,4.25Z"/><path d="M527.19,611.88c-1.52,0-2.89-.43-4.09-1.29-1.2-.86-1.8-2.14-1.8-3.83,0-1.18.29-2.17.87-2.96.58-.8,1.4-1.39,2.47-1.77,1.07-.38,2.15-.64,3.26-.79s2.38-.22,3.83-.22h1.73v-.77c0-3.19-1.62-4.79-4.86-4.79-2.01,0-3.72.68-5.12,2.03l-1.1-1.33c1.62-1.57,3.76-2.36,6.41-2.36,1.99,0,3.58.53,4.79,1.58,1.2,1.06,1.8,2.6,1.8,4.64v7.51c0,1.55.1,2.84.29,3.87h-1.8c-.2-1.18-.29-2.23-.29-3.17h-.07c-1.35,2.43-3.45,3.65-6.3,3.65ZM527.67,610.22c1.87,0,3.3-.61,4.29-1.82.99-1.21,1.49-2.68,1.49-4.4v-1.4h-1.29c-5.87,0-8.8,1.35-8.8,4.05,0,1.23.42,2.13,1.27,2.71.85.58,1.86.87,3.04.87Z"/><path d="M549.03,594.24v1.69h-4.9v10.86c0,1.15.23,1.97.7,2.45.47.48,1.14.72,2.03.72.71,0,1.41-.16,2.1-.48l.11,1.73c-.88.32-1.79.48-2.73.48-1.2,0-2.2-.35-3-1.05-.8-.7-1.2-1.82-1.2-3.37v-11.34h-3.61v-1.69h3.57v-4.9h2.03v4.9h4.9Z"/><path d="M555.23,586.36c.31.3.46.65.46,1.07s-.15.77-.46,1.07c-.31.29-.66.44-1.05.44s-.74-.15-1.03-.44-.44-.65-.44-1.07.15-.77.44-1.07.64-.44,1.03-.44.74.15,1.05.44ZM555.22,594.24v17.16h-2.03v-17.16h2.03Z"/><path d="M575.36,594.24l-6.81,17.16h-2.28l-6.92-17.16h2.25l5.82,15.06h.07l5.74-15.06h2.14Z"/><path d="M596.31,602.82c0,2.6-.85,4.76-2.54,6.48s-3.87,2.58-6.52,2.58-4.79-.86-6.48-2.58c-1.69-1.72-2.54-3.88-2.54-6.48s.84-4.79,2.52-6.48c1.68-1.69,3.85-2.54,6.5-2.54s4.82.85,6.52,2.54c1.69,1.69,2.54,3.85,2.54,6.48ZM592.34,608.01c1.28-1.38,1.92-3.11,1.92-5.19s-.64-3.82-1.92-5.21c-1.28-1.39-2.97-2.08-5.08-2.08s-3.77.69-5.05,2.08c-1.28,1.39-1.91,3.12-1.91,5.21s.64,3.82,1.91,5.19c1.28,1.38,2.96,2.06,5.05,2.06s3.8-.69,5.08-2.06Z"/><path d="M625.44,608.01c-.71,1.23-1.69,2.18-2.93,2.85-1.24.67-2.55,1.01-3.92,1.01-2.58,0-4.68-.86-6.32-2.58s-2.45-3.88-2.45-6.48.82-4.73,2.45-6.44,3.74-2.58,6.32-2.58c1.38,0,2.68.34,3.92,1.03,1.24.69,2.22,1.66,2.93,2.91h.07v-14.18h2.03v27.84h-2.03v-3.39h-.07ZM613.79,597.57c-1.24,1.41-1.86,3.16-1.86,5.25s.62,3.83,1.86,5.23c1.24,1.4,2.9,2.1,4.99,2.1s3.68-.7,4.99-2.1c1.31-1.4,1.97-3.14,1.97-5.23s-.66-3.84-1.97-5.25c-1.31-1.41-2.98-2.12-4.99-2.12s-3.75.71-4.99,2.12Z"/><path d="M641.87,611.88c-2.5,0-4.58-.86-6.22-2.58-1.65-1.72-2.47-3.89-2.47-6.52s.82-4.72,2.45-6.43c1.63-1.71,3.65-2.56,6.06-2.56,2.58,0,4.57.8,5.98,2.41,1.41,1.61,2.12,3.6,2.12,5.98v1.03h-14.55c.05,1.89.69,3.52,1.91,4.88,1.23,1.36,2.82,2.04,4.79,2.04,2.28,0,4.25-.97,5.89-2.91l1.33,1.07c-1.84,2.38-4.27,3.57-7.29,3.57ZM635.27,601.64h12.52c-.07-1.84-.66-3.33-1.75-4.47-1.09-1.14-2.56-1.71-4.4-1.71s-3.31.64-4.49,1.93c-1.18,1.29-1.8,2.71-1.88,4.25Z"/><path d="M666.63,586.36c.31.3.46.65.46,1.07s-.15.77-.46,1.07c-.31.29-.66.44-1.05.44s-.74-.15-1.03-.44-.44-.65-.44-1.07.15-.77.44-1.07.64-.44,1.03-.44.74.15,1.05.44ZM666.61,594.24v17.16h-2.03v-17.16h2.03Z"/><path d="M673.54,611.4v-13.22c0-1.62-.05-2.93-.15-3.94h1.91c.1,1.28.15,2.42.15,3.43h.07c.49-1.18,1.27-2.12,2.34-2.82,1.07-.7,2.21-1.05,3.44-1.05,2.75,0,4.58,1.36,5.49,4.09h.07c.56-1.3,1.38-2.31,2.43-3.02,1.06-.71,2.3-1.07,3.72-1.07,2.11,0,3.7.66,4.77,1.97,1.07,1.31,1.6,3.04,1.6,5.17v10.46h-1.99v-9.72c0-1.87-.37-3.37-1.12-4.51-.75-1.14-1.93-1.71-3.55-1.71-1.72,0-3.04.66-3.96,1.99-.92,1.33-1.38,3-1.38,5.01v8.95h-2.03v-10.09c0-3.9-1.46-5.85-4.38-5.85-1.47,0-2.74.64-3.81,1.91-1.07,1.28-1.6,3.04-1.6,5.3v8.73h-2.03Z"/><path d="M710.69,611.88c-1.52,0-2.88-.43-4.09-1.29-1.2-.86-1.8-2.14-1.8-3.83,0-1.18.29-2.17.87-2.96.58-.8,1.4-1.39,2.47-1.77,1.07-.38,2.15-.64,3.26-.79s2.38-.22,3.83-.22h1.73v-.77c0-3.19-1.62-4.79-4.86-4.79-2.01,0-3.72.68-5.12,2.03l-1.1-1.33c1.62-1.57,3.76-2.36,6.41-2.36,1.99,0,3.58.53,4.79,1.58,1.2,1.06,1.8,2.6,1.8,4.64v7.51c0,1.55.1,2.84.29,3.87h-1.8c-.2-1.18-.3-2.23-.3-3.17h-.07c-1.35,2.43-3.45,3.65-6.3,3.65ZM711.17,610.22c1.87,0,3.3-.61,4.29-1.82.99-1.21,1.49-2.68,1.49-4.4v-1.4h-1.29c-5.87,0-8.8,1.35-8.8,4.05,0,1.23.42,2.13,1.27,2.71.85.58,1.86.87,3.04.87ZM717.14,585.33l-4.64,5.3h-1.73l3.72-5.3h2.65Z"/><path d="M724.8,616.96l1.29-1.36c1.87,1.99,4.15,2.98,6.85,2.98,2.43,0,4.2-.71,5.3-2.12s1.66-3.24,1.66-5.47v-3.35h-.07c-.64,1.23-1.59,2.18-2.85,2.87-1.26.69-2.6,1.03-4,1.03-2.6,0-4.71-.83-6.33-2.49s-2.43-3.76-2.43-6.32.82-4.65,2.45-6.37,3.74-2.58,6.32-2.58c1.4,0,2.72.34,3.96,1.03,1.24.69,2.2,1.66,2.89,2.91h.07v-3.5h2.03v16.76c0,1.18-.14,2.28-.42,3.3-.28,1.02-.74,2.01-1.38,2.96-.64.96-1.58,1.71-2.82,2.26-1.24.55-2.72.83-4.44.83-3.26,0-5.95-1.13-8.06-3.39ZM728.17,597.55c-1.24,1.4-1.86,3.11-1.86,5.12s.62,3.71,1.86,5.1c1.24,1.39,2.9,2.08,4.99,2.08s3.68-.68,4.99-2.04c1.31-1.36,1.97-3.07,1.97-5.14s-.66-3.66-1.99-5.08c-1.33-1.42-2.98-2.14-4.97-2.14-2.09,0-3.75.7-4.99,2.1Z"/><path d="M756.1,611.88c-2.5,0-4.58-.86-6.22-2.58-1.65-1.72-2.47-3.89-2.47-6.52s.82-4.72,2.45-6.43c1.63-1.71,3.65-2.56,6.06-2.56,2.58,0,4.57.8,5.98,2.41,1.41,1.61,2.12,3.6,2.12,5.98v1.03h-14.55c.05,1.89.69,3.52,1.91,4.88,1.23,1.36,2.82,2.04,4.79,2.04,2.28,0,4.25-.97,5.89-2.91l1.33,1.07c-1.84,2.38-4.27,3.57-7.29,3.57ZM749.51,601.64h12.52c-.07-1.84-.66-3.33-1.75-4.47-1.09-1.14-2.56-1.71-4.4-1.71s-3.31.64-4.49,1.93c-1.18,1.29-1.8,2.71-1.88,4.25Z"/><path d="M769.47,594.24h1.91c.1,1.28.15,2.42.15,3.43h.07c.49-1.15,1.31-2.09,2.47-2.8,1.15-.71,2.38-1.07,3.68-1.07,2.14,0,3.74.65,4.81,1.95,1.07,1.3,1.6,3.03,1.6,5.19v10.46h-1.99v-9.72c0-4.12-1.62-6.19-4.86-6.19-1.6,0-2.94.63-4.03,1.88-1.09,1.25-1.64,3.02-1.64,5.3v8.73h-2.03v-13.22c0-1.62-.05-2.93-.15-3.94Z"/><path d="M798.26,611.88c-2.5,0-4.58-.86-6.22-2.58-1.65-1.72-2.47-3.89-2.47-6.52s.82-4.72,2.45-6.43c1.63-1.71,3.65-2.56,6.06-2.56,2.58,0,4.57.8,5.98,2.41,1.41,1.61,2.12,3.6,2.12,5.98v1.03h-14.55c.05,1.89.69,3.52,1.91,4.88,1.23,1.36,2.82,2.04,4.79,2.04,2.28,0,4.25-.97,5.89-2.91l1.33,1.07c-1.84,2.38-4.27,3.57-7.29,3.57ZM791.67,601.64h12.52c-.07-1.84-.66-3.33-1.75-4.47-1.09-1.14-2.56-1.71-4.4-1.71s-3.31.64-4.49,1.93c-1.18,1.29-1.8,2.71-1.88,4.25Z"/><path d="M822.27,596.71l-1.55,1.1c-.93-1.57-2.37-2.36-4.31-2.36-1.03,0-1.93.25-2.71.75-.77.5-1.16,1.25-1.16,2.23s.33,1.63.99,2.08c.66.45,1.77.85,3.31,1.2,1.92.42,3.35,1.01,4.31,1.77.96.76,1.44,1.82,1.44,3.17,0,1.72-.61,3.01-1.82,3.89s-2.68,1.31-4.4,1.31c-2.9,0-5.07-1.07-6.52-3.2l1.58-1.14c.52.79,1.21,1.42,2.08,1.91.87.49,1.82.74,2.85.74,1.18,0,2.18-.28,3-.83s1.23-1.39,1.23-2.52c0-.86-.34-1.53-1.03-2.03-.69-.49-1.52-.85-2.49-1.09-.97-.23-1.95-.49-2.93-.77-.98-.28-1.82-.78-2.5-1.49-.69-.71-1.03-1.66-1.03-2.84,0-1.57.57-2.76,1.71-3.57,1.14-.81,2.52-1.21,4.14-1.21,1.28,0,2.42.25,3.44.75,1.02.5,1.8,1.22,2.34,2.15Z"/><path d="M850.7,596.49l-1.33,1.22c-.52-.66-1.2-1.19-2.06-1.58-.86-.39-1.76-.59-2.69-.59-2.04,0-3.69.69-4.95,2.08-1.27,1.39-1.9,3.12-1.9,5.21s.63,3.82,1.88,5.19,2.88,2.06,4.9,2.06,3.68-.69,5.01-2.06l1.25,1.14c-1.57,1.82-3.66,2.73-6.26,2.73s-4.79-.85-6.41-2.54-2.43-3.87-2.43-6.52.83-4.79,2.49-6.48c1.66-1.69,3.79-2.54,6.39-2.54s4.69.9,6.11,2.69Z"/><path d="M871.99,602.82c0,2.6-.85,4.76-2.54,6.48s-3.87,2.58-6.52,2.58-4.79-.86-6.48-2.58c-1.69-1.72-2.54-3.88-2.54-6.48s.84-4.79,2.52-6.48c1.68-1.69,3.85-2.54,6.5-2.54s4.82.85,6.52,2.54c1.69,1.69,2.54,3.85,2.54,6.48ZM868.01,608.01c1.28-1.38,1.92-3.11,1.92-5.19s-.64-3.82-1.92-5.21c-1.28-1.39-2.97-2.08-5.08-2.08s-3.77.69-5.05,2.08c-1.28,1.39-1.91,3.12-1.91,5.21s.64,3.82,1.91,5.19c1.28,1.38,2.96,2.06,5.05,2.06s3.8-.69,5.08-2.06Z"/><path d="M877.47,594.24h1.91c.1,1.28.15,2.42.15,3.43h.07c.49-1.15,1.31-2.09,2.47-2.8,1.15-.71,2.38-1.07,3.68-1.07,2.14,0,3.74.65,4.81,1.95,1.07,1.3,1.6,3.03,1.6,5.19v10.46h-1.99v-9.72c0-4.12-1.62-6.19-4.86-6.19-1.6,0-2.94.63-4.03,1.88-1.09,1.25-1.64,3.02-1.64,5.3v8.73h-2.03v-13.22c0-1.62-.05-2.93-.15-3.94Z"/><path d="M910.16,586.36c.31.3.46.65.46,1.07s-.15.77-.46,1.07c-.31.29-.66.44-1.05.44s-.74-.15-1.03-.44-.44-.65-.44-1.07.15-.77.44-1.07.64-.44,1.03-.44.74.15,1.05.44ZM910.14,594.24v17.16h-2.03v-17.16h2.03Z"/><path d="M917.06,611.4v-13.22c0-1.62-.05-2.93-.15-3.94h1.91c.1,1.28.15,2.42.15,3.43h.07c.49-1.18,1.27-2.12,2.34-2.82,1.07-.7,2.21-1.05,3.44-1.05,2.75,0,4.58,1.36,5.49,4.09h.07c.56-1.3,1.38-2.31,2.43-3.02,1.06-.71,2.3-1.07,3.72-1.07,2.11,0,3.7.66,4.77,1.97,1.07,1.31,1.6,3.04,1.6,5.17v10.46h-1.99v-9.72c0-1.87-.37-3.37-1.12-4.51-.75-1.14-1.93-1.71-3.55-1.71-1.72,0-3.04.66-3.96,1.99-.92,1.33-1.38,3-1.38,5.01v8.95h-2.03v-10.09c0-3.9-1.46-5.85-4.38-5.85-1.47,0-2.74.64-3.81,1.91-1.07,1.28-1.6,3.04-1.6,5.3v8.73h-2.03Z"/><path d="M951.64,608.09v12.15h-1.99v-26h1.99v3.43h.11c.71-1.28,1.68-2.24,2.89-2.89,1.22-.65,2.52-.98,3.92-.98,2.6,0,4.72.85,6.35,2.56,1.63,1.71,2.45,3.86,2.45,6.46s-.8,4.76-2.41,6.48-3.71,2.58-6.32,2.58c-1.42,0-2.76-.33-4.01-.98-1.25-.65-2.21-1.59-2.87-2.82h-.11ZM963.37,608.05c1.24-1.4,1.86-3.14,1.86-5.23s-.62-3.84-1.86-5.25c-1.24-1.41-2.9-2.12-4.99-2.12s-3.64.71-4.95,2.12c-1.31,1.41-1.97,3.16-1.97,5.25s.66,3.83,1.97,5.23c1.31,1.4,2.96,2.1,4.95,2.1,2.09,0,3.75-.7,4.99-2.1Z"/><path d="M977.49,611.88c-1.52,0-2.88-.43-4.09-1.29-1.2-.86-1.8-2.14-1.8-3.83,0-1.18.29-2.17.87-2.96.58-.8,1.4-1.39,2.47-1.77,1.07-.38,2.15-.64,3.26-.79s2.38-.22,3.83-.22h1.73v-.77c0-3.19-1.62-4.79-4.86-4.79-2.01,0-3.72.68-5.12,2.03l-1.1-1.33c1.62-1.57,3.76-2.36,6.41-2.36,1.99,0,3.58.53,4.79,1.58,1.2,1.06,1.8,2.6,1.8,4.64v7.51c0,1.55.1,2.84.29,3.87h-1.8c-.2-1.18-.3-2.23-.3-3.17h-.07c-1.35,2.43-3.45,3.65-6.3,3.65ZM977.97,610.22c1.87,0,3.3-.61,4.29-1.82.99-1.21,1.49-2.68,1.49-4.4v-1.4h-1.29c-5.87,0-8.8,1.35-8.8,4.05,0,1.23.42,2.13,1.27,2.71.85.58,1.86.87,3.04.87Z"/><path d="M1006.03,596.49l-1.33,1.22c-.52-.66-1.2-1.19-2.06-1.58-.86-.39-1.76-.59-2.69-.59-2.04,0-3.69.69-4.95,2.08-1.27,1.39-1.9,3.12-1.9,5.21s.63,3.82,1.88,5.19,2.88,2.06,4.9,2.06,3.68-.69,5.01-2.06l1.25,1.14c-1.57,1.82-3.66,2.73-6.26,2.73s-4.79-.85-6.41-2.54-2.43-3.87-2.43-6.52.83-4.79,2.49-6.48c1.66-1.69,3.79-2.54,6.39-2.54s4.69.9,6.11,2.69Z"/><path d="M1017.89,594.24v1.69h-4.9v10.86c0,1.15.23,1.97.7,2.45.47.48,1.14.72,2.03.72.71,0,1.41-.16,2.1-.48l.11,1.73c-.88.32-1.79.48-2.73.48-1.2,0-2.2-.35-3-1.05-.8-.7-1.2-1.82-1.2-3.37v-11.34h-3.61v-1.69h3.57v-4.9h2.03v4.9h4.9Z"/><path d="M1038.84,602.82c0,2.6-.85,4.76-2.54,6.48s-3.87,2.58-6.52,2.58-4.79-.86-6.48-2.58c-1.69-1.72-2.54-3.88-2.54-6.48s.84-4.79,2.52-6.48c1.68-1.69,3.85-2.54,6.5-2.54s4.82.85,6.52,2.54c1.69,1.69,2.54,3.85,2.54,6.48ZM1034.87,608.01c1.28-1.38,1.92-3.11,1.92-5.19s-.64-3.82-1.92-5.21c-1.28-1.39-2.97-2.08-5.08-2.08s-3.77.69-5.05,2.08c-1.28,1.39-1.91,3.12-1.91,5.21s.64,3.82,1.91,5.19c1.28,1.38,2.96,2.06,5.05,2.06s3.8-.69,5.08-2.06Z"/></svg>