<?xml version="1.0" encoding="UTF-8"?><svg id="OBJECTS" xmlns="http://www.w3.org/2000/svg" viewBox="0 0 1066 1033.55"><path d="M712.57,253.56c-116.52-88.08-272.67-71.48-361.82-16.06-48.45,30.12-83.15,75.36-85.29,78.19-3.88,5.13-43.51,58.6-57.82,126.83-21.55,102.74,13.82,241.42,119.95,320.29,128.74,95.67,336.27,84.5,447.12-62.13,106.31-140.62,78.49-340.8-62.13-447.12ZM568.18,812.7c-168.18,26.56-326.05-88.24-352.61-256.42-20.31-128.6,120.87-106.81,161.93-176.88,43.12-73.59-18.11-157.9,94.49-175.74,152.29-24.13,323.85,74.29,352.61,256.42,26.56,168.18-88.24,326.05-256.42,352.61Z"/><circle cx="521" cy="508.21" r="91.06"/></svg>